<svg xmlns="http://www.w3.org/2000/svg" viewBox="0 0 1119.47 933.75"><defs><style>.a{fill:#88cede;}.b{fill:#7bc9db;}.c{fill:#91d1df;}.d{fill:#82ccdd;}.e{fill:#2682bd;}.f{fill:#99d4e1;}.g{fill:#56c1e3;}.h{fill:#37aad7;}.i{fill:#37a0d1;}.j{fill:#3197cb;}.k{fill:#2c8ec5;}.l{fill:#236b98;}.m{fill:#308bb4;}.n{fill:#3391b9;}.o{fill:#389ac1;}.p{fill:#3696bd;}.q{fill:#2a7ea9;}.r{fill:#2c84ae;}.s{fill:#2879a4;}.t{fill:#26729e;}.u{fill:#38a4ca;}.v{fill:#50bbde;}.w{fill:#48b6d9;}.x{fill:#3bacd0;}.y{fill:#40b0d4;}.z{fill:#87cdde;}.aa{fill:#4ab5d8;}.ab{fill:#3a9dc3;}.ac{fill:#3ea9cd;}.ad{fill:#65c3d8;}.ae{fill:#70c7da;}.af{fill:#7ccadc;}</style></defs><path class="a" d="M965.59,363.89,905.88,439c-44.2-56.81-84.62-116.34-125.78-175.33-7-10-11.45-21.62-9.85-34.51,44.94-22.24,93-20.91,141.12-18.4-26.08,26.05-26,26-1.94,61.21,15,22.05,31.89,42.81,46.15,65.39C960.66,345.43,970,352.15,965.59,363.89Z"/><path class="a" d="M965.59,363.89,905.88,439c-44.2-56.81-84.62-116.34-125.78-175.33-7-10-11.45-21.62-9.85-34.51,44.94-22.24,93-20.91,141.12-18.4-26.08,26.05-26,26-1.94,61.21,15,22.05,31.89,42.81,46.15,65.39C960.66,345.43,970,352.15,965.59,363.89Z"/><path class="b" d="M886.1,472.78,832.67,612.92c-17.17-18.07-9-40.53-10.7-61.26.11-21.22-7.33-41.08-11.54-61.5-1.54-18.07-15-31.4-19.51-48.28-2.39-18.63-15.6-31.41-25.15-46.15-6.41-12.88-14.17-24.78-25-34.51-9.65-10.39-19.75-20.27-32.19-27.4C696.51,323.53,684,314,668.37,309.35c-5.77-2.58-10.74-6.1-13.89-11.76a20.48,20.48,0,0,1-.91-9.29c13.58-20.47,33-32.25,56.59-37.64l27.4-8.62c14,41,43.89,72,67.84,106.63,24.09,34.82,48.2,69.7,74.38,103.05C884.55,457.81,889.9,464,886.1,472.78Z"/><path class="b" d="M886.1,472.78,832.67,612.92c-17.17-18.07-9-40.53-10.7-61.26.11-21.22-7.33-41.08-11.54-61.5-1.54-18.07-15-31.4-19.51-48.28-2.39-18.63-15.6-31.41-25.15-46.15-6.41-12.88-14.17-24.78-25-34.51-9.65-10.39-19.75-20.27-32.19-27.4C696.51,323.53,684,314,668.37,309.35c-5.77-2.58-10.74-6.1-13.89-11.76a20.48,20.48,0,0,1-.91-9.29c13.58-20.47,33-32.25,56.59-37.64l27.4-8.62c14,41,43.89,72,67.84,106.63,24.09,34.82,48.2,69.7,74.38,103.05C884.55,457.81,889.9,464,886.1,472.78Z"/><path class="c" d="M965.59,363.89c-26.51-36.63-52.81-73.41-79.6-109.83-20.35-27.65-18.21-32.75,17-38.31,3-.47,5.58-3.26,8.35-5,30.87-1,58.83,10.79,87.41,19.88,3.4,20.93,13.72,38.33,26.49,54.92,9.34,12.14,18.63,25.66,1,39.1l-27,19.66C986.32,348,980.77,364.21,965.59,363.89Z"/><path class="c" d="M965.59,363.89c-26.51-36.63-52.81-73.41-79.6-109.83-20.35-27.65-18.21-32.75,17-38.31,3-.47,5.58-3.26,8.35-5,30.87-1,58.83,10.79,87.41,19.88,3.4,20.93,13.72,38.33,26.49,54.92,9.34,12.14,18.63,25.66,1,39.1l-27,19.66C986.32,348,980.77,364.21,965.59,363.89Z"/><path class="d" d="M886.1,472.78q-70.71-97.66-141.3-195.42c-7.43-10.33-18.11-20.84-7.24-35.31,9.15-8.73,20.26-12.48,32.69-12.85C800,286,841.38,334.85,877.75,387.14c11.24,16.16,25.45,31,28.13,51.88C902.3,452.05,896.69,463.87,886.1,472.78Z"/><path class="d" d="M886.1,472.78q-70.71-97.66-141.3-195.42c-7.43-10.33-18.11-20.84-7.24-35.31,9.15-8.73,20.26-12.48,32.69-12.85C800,286,841.38,334.85,877.75,387.14c11.24,16.16,25.45,31,28.13,51.88C902.3,452.05,896.69,463.87,886.1,472.78Z"/><path class="e" d="M710.16,250.66l-52.84,39.6c-16,10.13-28.37-4.19-42.58-6.27-20.06-8.11-42-11.57-60.19-24.36-12.95-11.39-12.31-25.22-5.29-38.82,6.6-12.79,6.78-27.62,14.18-40L623,198.24C652.42,215.05,684.31,227.84,710.16,250.66Z"/><path class="e" d="M710.16,250.66l-52.84,39.6c-16,10.13-28.37-4.19-42.58-6.27-20.06-8.11-42-11.57-60.19-24.36-12.95-11.39-12.31-25.22-5.29-38.82,6.6-12.79,6.78-27.62,14.18-40L623,198.24C652.42,215.05,684.31,227.84,710.16,250.66Z"/><path class="f" d="M1026.26,324.69c12.4-22.29-7.62-33.51-17.21-47.52-10-14.62-22.44-27.49-10.26-46.5,44,13.5,81.31,38.27,120.68,70.82C1083.61,304.06,1055.86,317.61,1026.26,324.69Z"/><path class="f" d="M1026.26,324.69c12.4-22.29-7.62-33.51-17.21-47.52-10-14.62-22.44-27.49-10.26-46.5,44,13.5,81.31,38.27,120.68,70.82C1083.61,304.06,1055.86,317.61,1026.26,324.69Z"/><path class="g" d="M261.38,533.22c-98.62-17.46-173.54-68-220.13-157.94C11,296.27-.76,214.25,0,124.16c39.1,34.82,81,55.87,127.27,68C138.19,195,151.82,204,155.19,183a212.46,212.46,0,0,0,71,20.52c32.55,5.29,65.92,4.3,98,13.18a38.8,38.8,0,0,1,9.37,3.8c20.56,12.76,13.62,30.46,8.11,47.51-22.3,68.92-47.29,136.91-72.25,204.87C262,493,256.7,512.1,261.38,533.22Z"/><path class="g" d="M189.69,399.79c-23.29-16.45-42.07-38.18-57.1-65.71q-7.28-19.72-12.88-40.15a119,119,0,0,0,24.34,2.57,112,112,0,0,0,23.7-2.51,323.18,323.18,0,0,0,44.82,8.6q5.77.9,11.4,1.6C212.84,336.18,201.26,368.16,189.69,399.79Z"/><path class="h" d="M227.92,209.74c-26.65-2.37-56,2.5-72.73-26.76-5.94-58.6-4.62-116.93,6.89-183,31.6,47.34,71.11,77.12,115.28,101.1C265.29,139.32,245.16,173.87,227.92,209.74Z"/><path class="h" d="M227.92,209.74c-26.65-2.37-56,2.5-72.73-26.76-5.94-58.6-4.62-116.93,6.89-183,31.6,47.34,71.11,77.12,115.28,101.1C265.29,139.32,245.16,173.87,227.92,209.74Z"/><path class="i" d="M227.92,209.74c4-41.91,25.84-75.66,49.44-108.63,14.93,11.3,33.73,9.62,50.42,15l21.37,10.61c13,7.17,19,16.82,10.79,31.21-11.95,20.93-17.48,44.94-31.3,65C294.89,219.9,261,218,227.92,209.74Z"/><path class="i" d="M227.92,209.74c4-41.91,25.84-75.66,49.44-108.63,14.93,11.3,33.73,9.62,50.42,15l21.37,10.61c13,7.17,19,16.82,10.79,31.21-11.95,20.93-17.48,44.94-31.3,65C294.89,219.9,261,218,227.92,209.74Z"/><path class="j" d="M328.64,222.91c-3.36-23.88,11.66-41.68,20.73-61.31,5.58-12.08,13.29-23.27-.22-34.85l114.6,28.59c-.35,30.57-25.86,54-24.17,85.22-6.27,3.4-13,4.5-20.05,4.63-31.71-1.61-61.88-9.58-91-21.81Z"/><path class="j" d="M328.64,222.91c-3.36-23.88,11.66-41.68,20.73-61.31,5.58-12.08,13.29-23.27-.22-34.85l114.6,28.59c-.35,30.57-25.86,54-24.17,85.22-6.27,3.4-13,4.5-20.05,4.63-31.71-1.61-61.88-9.58-91-21.81Z"/><path class="k" d="M442.64,236.23c-5.67-6.92-15.87-11.2-8.33-24,10.84-18.37,19.72-37.89,29.44-56.92,34.2,4.72,67.78,11.84,99.69,25.51,7.62,13.11,3.13,24.82-3.94,36.43-7.59,12.47-13.21,25.28-3,39.18l-3.66,3.41c-15,5.4-29.42-2.33-44.22-2.23-11.54-1.72-22.7-5.16-34.11-7.5C463.49,246.48,450.94,246.2,442.64,236.23Z"/><path class="k" d="M442.64,236.23c-5.67-6.92-15.87-11.2-8.33-24,10.84-18.37,19.72-37.89,29.44-56.92,34.2,4.72,67.78,11.84,99.69,25.51,7.62,13.11,3.13,24.82-3.94,36.43-7.59,12.47-13.21,25.28-3,39.18l-3.66,3.41c-15,5.4-29.42-2.33-44.22-2.23-11.54-1.72-22.7-5.16-34.11-7.5C463.49,246.48,450.94,246.2,442.64,236.23Z"/><path class="l" d="M811.85,699.31c-15.58,22.3-24,49.41-45.7,67.59-6,3.48-8.69,10.09-13.88,14.34-4.26,3.5-8.55,8.27-14.45,4.29-5-3.38-5.58-9.39-5.31-15,.36-7.88,2.94-15.32,5.26-22.8,18.55-59.8,41.29-118.14,61.86-177.24,4.55-13.09,6.94-33.29,30.57-25.26l2.46,67.73C830.09,642.77,819.19,670.61,811.85,699.31Z"/><path class="l" d="M811.85,699.31c-15.58,22.3-24,49.41-45.7,67.59-6,3.48-8.69,10.09-13.88,14.34-4.26,3.5-8.55,8.27-14.45,4.29-5-3.38-5.58-9.39-5.31-15,.36-7.88,2.94-15.32,5.26-22.8,18.55-59.8,41.29-118.14,61.86-177.24,4.55-13.09,6.94-33.29,30.57-25.26l2.46,67.73C830.09,642.77,819.19,670.61,811.85,699.31Z"/><path class="m" d="M586,888.33c-12.16,8.78-26.05,12.12-40.74,12.93-34.72,3.43-42-3.73-31.14-34.91C573.77,695.19,633,523.88,695,353.51c3.4-9.36,6.59-19.06,16.17-24.42,15.38,4.29,25.1,15.3,33.36,28.05-3.46,47.58-24.2,90.27-39.72,134.13C664.55,604.87,625,718.68,585.21,832.44c-3.32,9.48-4.45,20.59-10.53,28.06C560.27,878.22,572.25,883.15,586,888.33Z"/><path class="m" d="M586,888.33c-12.16,8.78-26.05,12.12-40.74,12.93-34.72,3.43-42-3.73-31.14-34.91C573.77,695.19,633,523.88,695,353.51c3.4-9.36,6.59-19.06,16.17-24.42,15.38,4.29,25.1,15.3,33.36,28.05-3.46,47.58-24.2,90.27-39.72,134.13C664.55,604.87,625,718.68,585.21,832.44c-3.32,9.48-4.45,20.59-10.53,28.06C560.27,878.22,572.25,883.15,586,888.33Z"/><path class="n" d="M711.13,329.09Q637.57,540.16,564,751.19q-21.48,61.41-44.22,122.38c-10.23,27.26,7.66,27,25.46,27.69-7.41,7.38-17,6.34-26.23,6.82-11.29,5.39-25.18-1.86-35.69,7.34a30.54,30.54,0,0,1-20.66,0c-4.31-14.67,6.61-25.16,10.8-37.32q83.32-241.34,169.07-481.83a929.72,929.72,0,0,0,28.16-92.33C688.21,305.76,701.11,315.12,711.13,329.09Z"/><path class="n" d="M711.13,329.09Q637.57,540.16,564,751.19q-21.48,61.41-44.22,122.38c-10.23,27.26,7.66,27,25.46,27.69-7.41,7.38-17,6.34-26.23,6.82-11.29,5.39-25.18-1.86-35.69,7.34a30.54,30.54,0,0,1-20.66,0c-4.31-14.67,6.61-25.16,10.8-37.32q83.32-241.34,169.07-481.83a929.72,929.72,0,0,0,28.16-92.33C688.21,305.76,701.11,315.12,711.13,329.09Z"/><path class="o" d="M616.87,276.85l40.45,13.41a22.82,22.82,0,0,1,.26,5.54c6.69,10.86,3,21.58-.76,32.11-45.88,128-90,256.56-135.86,384.54-4.46,12.46-5.64,30-26.7,26.61-10.69-27.19-12.53-56.31-18.58-84.52,17.62-55,39.87-108.47,58.44-163.29,21.78-64.25,42.62-129.1,69.27-191.71C606.89,291.32,609.47,282.7,616.87,276.85Z"/><path class="o" d="M616.87,276.85l40.45,13.41a22.82,22.82,0,0,1,.26,5.54c6.69,10.86,3,21.58-.76,32.11-45.88,128-90,256.56-135.86,384.54-4.46,12.46-5.64,30-26.7,26.61-10.69-27.19-12.53-56.31-18.58-84.52,17.62-55,39.87-108.47,58.44-163.29,21.78-64.25,42.62-129.1,69.27-191.71C606.89,291.32,609.47,282.7,616.87,276.85Z"/><path class="p" d="M496.28,739.54c18.94-8.43,15.24-28.7,20.46-43.17,48-133.15,94.13-266.94,140.83-400.56l13.08,8.08c8.15,11.46,4.79,22.6.54,34.7Q574.5,613.83,478.72,889.38c-3.48,10-9.23,17.28-16,24.47-24.77,10.42-32.13.81-27.88-23.6,4.29-24.66,20.49-46.67,16.16-73.18,2.09-20.51,20.13-32.94,26.07-51.53C482.27,756,483.68,743.61,496.28,739.54Z"/><path class="p" d="M496.28,739.54c18.94-8.43,15.24-28.7,20.46-43.17,48-133.15,94.13-266.94,140.83-400.56l13.08,8.08c8.15,11.46,4.79,22.6.54,34.7Q574.5,613.83,478.72,889.38c-3.48,10-9.23,17.28-16,24.47-24.77,10.42-32.13.81-27.88-23.6,4.29-24.66,20.49-46.67,16.16-73.18,2.09-20.51,20.13-32.94,26.07-51.53C482.27,756,483.68,743.61,496.28,739.54Z"/><path class="q" d="M672.12,847.49c-10,9.72-21.41,16.76-35.28,19.41-3.46,3.18-8.17,3.09-12.23,4.71-9.17,3.66-19.17,10.36-27.88,1.94-9.48-9.16-4.36-20.81-.73-31.35,41.26-120,84.19-239.34,126.06-359.1,7.71-22.05,14.86-44.34,23.41-66.07,4.61-11.7,6.46-27.29,25.07-26,10.68,14.58,26.17,26.41,26.74,46.77-40.6,93-68,190.8-104.16,285.42-11.54,30.16-19.43,61.73-31.91,91.52C654.64,830.43,658.6,839.86,672.12,847.49Z"/><path class="q" d="M672.12,847.49c-10,9.72-21.41,16.76-35.28,19.41-3.46,3.18-8.17,3.09-12.23,4.71-9.17,3.66-19.17,10.36-27.88,1.94-9.48-9.16-4.36-20.81-.73-31.35,41.26-120,84.19-239.34,126.06-359.1,7.71-22.05,14.86-44.34,23.41-66.07,4.61-11.7,6.46-27.29,25.07-26,10.68,14.58,26.17,26.41,26.74,46.77-40.6,93-68,190.8-104.16,285.42-11.54,30.16-19.43,61.73-31.91,91.52C654.64,830.43,658.6,839.86,672.12,847.49Z"/><path class="r" d="M770.54,391c-27.52,33.67-32.42,76.84-46.9,115.71-42.25,113.49-82.78,227.71-120.41,342.81-15.2,46.5,24.59,6.66,33.61,17.34-15.15,11.45-32.29,18.19-50.89,21.43l-30.4,1.93Q599.68,762.7,644,634.79q44.28-127.21,89.26-254.18c2.86-8,2.72-18,11.26-23.46C757.49,365.12,765.92,376.62,770.54,391Z"/><path class="r" d="M770.54,391c-27.52,33.67-32.42,76.84-46.9,115.71-42.25,113.49-82.78,227.71-120.41,342.81-15.2,46.5,24.59,6.66,33.61,17.34-15.15,11.45-32.29,18.19-50.89,21.43l-30.4,1.93Q599.68,762.7,644,634.79q44.28-127.21,89.26-254.18c2.86-8,2.72-18,11.26-23.46C757.49,365.12,765.92,376.62,770.54,391Z"/><path class="s" d="M672.12,847.49c-19.77,3.51-35.14,6.85-23.75-24.36,41.92-115,81.49-230.83,122.38-346.2,5.32-15,7-33.36,26.53-39.12,3,17.14,21.05,28,19.61,47C783.82,532.18,774.05,589.2,755.18,642c-22.63,63.36-53.26,124.61-62.39,192.48C687.39,841.17,680.93,846.2,672.12,847.49Z"/><path class="s" d="M672.12,847.49c-19.77,3.51-35.14,6.85-23.75-24.36,41.92-115,81.49-230.83,122.38-346.2,5.32-15,7-33.36,26.53-39.12,3,17.14,21.05,28,19.61,47C783.82,532.18,774.05,589.2,755.18,642c-22.63,63.36-53.26,124.61-62.39,192.48C687.39,841.17,680.93,846.2,672.12,847.49Z"/><path class="t" d="M692.79,834.47c-12.37-7.11-6.27-16.4-3.81-26.05,18.09-70.8,46.07-138.26,71.49-206.43,10.85-29.09,17.74-59.21,28.84-88.1C794.8,499.6,799.74,487,816.9,484.8c6.35,19.71,13.3,39.28,13.31,60.39-10.2.69-15.54,6.33-18.83,15.94-24.74,72.38-49.84,144.64-77.32,224.12l32.09-18.35C749.65,798.05,718.51,813.32,692.79,834.47Z"/><path class="t" d="M692.79,834.47c-12.37-7.11-6.27-16.4-3.81-26.05,18.09-70.8,46.07-138.26,71.49-206.43,10.85-29.09,17.74-59.21,28.84-88.1C794.8,499.6,799.74,487,816.9,484.8c6.35,19.71,13.3,39.28,13.31,60.39-10.2.69-15.54,6.33-18.83,15.94-24.74,72.38-49.84,144.64-77.32,224.12l32.09-18.35C749.65,798.05,718.51,813.32,692.79,834.47Z"/><path class="u" d="M616.87,276.85c-8.38,56.75-36,107.36-54.69,160.51C540.85,498,527,561.69,497,619.34c-5.54,10.67-9.61,22.11-14.36,33.2-22-3.14-22.71-28.07-38.53-37.59-6.73-7.68-13.15-15.5-12.2-26.69,35.25-98.91,71.42-197.5,105-297,4.3-12.76,8.37-25.58,19.63-34.32v-.46Z"/><path class="u" d="M616.87,276.85c-8.38,56.75-36,107.36-54.69,160.51C540.85,498,527,561.69,497,619.34c-5.54,10.67-9.61,22.11-14.36,33.2-22-3.14-22.71-28.07-38.53-37.59-6.73-7.68-13.15-15.5-12.2-26.69,35.25-98.91,71.42-197.5,105-297,4.3-12.76,8.37-25.58,19.63-34.32v-.46Z"/><path class="v" d="M328.5,223.38c32.3-2.73,61.92,13.53,93.88,13.21-1.87,46.6-25.71,86.88-38.43,130.33C373.31,403.22,360,439,346.36,474.4c-10.17,26.36-17.88,51.69-4.54,78.87a351.86,351.86,0,0,1-80.44-20.06c-12-9.34-19-15.82-11.11-35.84,30.66-78,56.78-157.76,85-236.75C340.27,246.45,345.07,233.23,328.5,223.38Z"/><path class="v" d="M328.5,223.38c32.3-2.73,61.92,13.53,93.88,13.21-1.87,46.6-25.71,86.88-38.43,130.33C373.31,403.22,360,439,346.36,474.4c-10.17,26.36-17.88,51.69-4.54,78.87a351.86,351.86,0,0,1-80.44-20.06c-12-9.34-19-15.82-11.11-35.84,30.66-78,56.78-157.76,85-236.75C340.27,246.45,345.07,233.23,328.5,223.38Z"/><path class="w" d="M341.82,553.27c-18.32-9.45-24.89-24.51-18.19-43.66q45.21-129.17,91.39-258c1.86-5.22,4.88-10,7.36-15l20.25-.35c11.67-.14,23.13.69,33.46,7,6.68,17.6-3.09,32.51-8.53,47.78-24.57,69-49.35,138-73.16,207.23-7.56,22-14.66,44-12.29,67.71A107.67,107.67,0,0,1,341.82,553.27Z"/><path class="w" d="M341.82,553.27c-18.32-9.45-24.89-24.51-18.19-43.66q45.21-129.17,91.39-258c1.86-5.22,4.88-10,7.36-15l20.25-.35c11.67-.14,23.13.69,33.46,7,6.68,17.6-3.09,32.51-8.53,47.78-24.57,69-49.35,138-73.16,207.23-7.56,22-14.66,44-12.29,67.71A107.67,107.67,0,0,1,341.82,553.27Z"/><path class="x" d="M556.53,256.92Q502.56,414,448.35,571.1c-2.84,8.18-8.76,15.28-13.25,22.88-15.7,5-24.67-4.27-32.74-15.44a27.34,27.34,0,0,1-1-4.26c-9.27-13.7-5.77-27.81-1-41.74,29.07-84.36,59.73-168.17,88.9-252.51,4.09-11.84,10.5-22.1,20.28-30.1Z"/><path class="x" d="M556.53,256.92Q502.56,414,448.35,571.1c-2.84,8.18-8.76,15.28-13.25,22.88-15.7,5-24.67-4.27-32.74-15.44a27.34,27.34,0,0,1-1-4.26c-9.27-13.7-5.77-27.81-1-41.74,29.07-84.36,59.73-168.17,88.9-252.51,4.09-11.84,10.5-22.1,20.28-30.1Z"/><path class="y" d="M509.6,249.93Q460.8,387.86,412,525.77c-5.55,15.72-11.13,31.44-10.63,48.5l-19.28-8.34c-11.28-9.59-13.4-19.44-7.89-34.63,34.75-95.74,68.07-192,101.87-288.09Z"/><path class="y" d="M509.6,249.93Q460.8,387.86,412,525.77c-5.55,15.72-11.13,31.44-10.63,48.5l-19.28-8.34c-11.28-9.59-13.4-19.44-7.89-34.63,34.75-95.74,68.07-192,101.87-288.09Z"/><path class="z" d="M290,834.27c16.35-4.92,24.18-20.67,37.45-29.51,22.36,16,40.69,34.34,38.44,64.93-28.92,28.22-67.85,30.37-104,39.88-35.06,9.3-71.27,6.25-106.85,10H135.44C190.9,897.82,247.25,878.51,290,834.27Z"/><path class="z" d="M290,834.27c16.35-4.92,24.18-20.67,37.45-29.51,22.36,16,40.69,34.34,38.44,64.93-28.92,28.22-67.85,30.37-104,39.88-35.06,9.3-71.27,6.25-106.85,10H135.44C190.9,897.82,247.25,878.51,290,834.27Z"/><path class="aa" d="M155,919.57c34.51-12,71.17-11.78,106.55-18.77,13.55,19.09,34.19,15.51,53.47,17.3,20.94,1.94,43.81-6.87,62.26,10.31-35.57,10.75-72.08,1.28-108,5.07Z"/><path class="aa" d="M155,919.57c34.51-12,71.17-11.78,106.55-18.77,13.55,19.09,34.19,15.51,53.47,17.3,20.94,1.94,43.81-6.87,62.26,10.31-35.57,10.75-72.08,1.28-108,5.07Z"/><path class="ab" d="M456,813.6c17.23,27.06-7.83,47.1-11.78,70.64-2.61,15.54-11.1,34.26,18.42,29.61l20.34-.66c3.16-2.28,5.78-1.66,7.94,1.46-12.47,7.84-26.51,6.16-40.19,6.62-20.53,5.46-41.45,2.12-62.17,2.39-32.54.42-38-7.84-27.92-39.81,1.32-4.2,3.95-7.83,6.12-11.59,13-21.71,38.42-27.69,55.77-44C433.82,823.69,440.55,808.6,456,813.6Z"/><path class="ab" d="M456,813.6c17.23,27.06-7.83,47.1-11.78,70.64-2.61,15.54-11.1,34.26,18.42,29.61l20.34-.66c3.16-2.28,5.78-1.66,7.94,1.46-12.47,7.84-26.51,6.16-40.19,6.62-20.53,5.46-41.45,2.12-62.17,2.39-32.54.42-38-7.84-27.92-39.81,1.32-4.2,3.95-7.83,6.12-11.59,13-21.71,38.42-27.69,55.77-44C433.82,823.69,440.55,808.6,456,813.6Z"/><path class="ac" d="M375.52,867.12a50,50,0,0,0-2.73,6c-14.66,47.52-14.65,47.48,35.27,47.56,14.23,0,28.46.4,42.7.62-23.79,9.53-48.81,6.5-73.47,7.13-28.83-.44-57.79.45-86.47-1.93-13.81-1.15-36.93,2.45-29.25-25.68,34.63-8,69.47-15.27,100.77-33.3C366.61,862.91,371,863.53,375.52,867.12Z"/><path class="ac" d="M375.52,867.12a50,50,0,0,0-2.73,6c-14.66,47.52-14.65,47.48,35.27,47.56,14.23,0,28.46.4,42.7.62-23.79,9.53-48.81,6.5-73.47,7.13-28.83-.44-57.79.45-86.47-1.93-13.81-1.15-36.93,2.45-29.25-25.68,34.63-8,69.47-15.27,100.77-33.3C366.61,862.91,371,863.53,375.52,867.12Z"/><path class="p" d="M491,914.65,483,913.19c10.75-10.32,23.76-4.73,35.93-5.11C510.81,915.32,500.7,914.21,491,914.65Z"/><path class="p" d="M491,914.65,483,913.19c10.75-10.32,23.76-4.73,35.93-5.11C510.81,915.32,500.7,914.21,491,914.65Z"/><path class="ad" d="M415.9,679.45q17.19-33.74,34.36-67.48c17.43,8.23,19.44,28.78,32.42,40.57,7.32,28.56,16.6,56.82,13.59,87l-13,27.45C451.91,744.65,432.59,713.07,415.9,679.45Z"/><path class="ad" d="M415.9,679.45q17.19-33.74,34.36-67.48c17.43,8.23,19.44,28.78,32.42,40.57,7.32,28.56,16.6,56.82,13.59,87l-13,27.45C451.91,744.65,432.59,713.07,415.9,679.45Z"/><path class="ae" d="M415.9,679.45c27.7,25.13,45.63,57.79,67.34,87.53-1.79,19.79-17.94,31.19-27.2,46.62l-27.08,19c-11.8-7-18.25-18.76-24.84-29.93-10.38-17.58-23.82-30.81-43.83-36.51Q388.1,722.83,415.9,679.45Z"/><path class="ae" d="M415.9,679.45c27.7,25.13,45.63,57.79,67.34,87.53-1.79,19.79-17.94,31.19-27.2,46.62l-27.08,19c-11.8-7-18.25-18.76-24.84-29.93-10.38-17.58-23.82-30.81-43.83-36.51Q388.1,722.83,415.9,679.45Z"/><path class="af" d="M360.29,766.19c12.14-6.57,22.8-5.66,31.24,6.23,13.72,19.31,29.75,37.17,37.43,60.22-15.73,14.71-34.17,25.23-53.44,34.48l-13.18.37c-2.2-26.16-27.57-39.42-34.94-62.72C337,790.72,346.25,776.43,360.29,766.19Z"/><path class="af" d="M360.29,766.19c12.14-6.57,22.8-5.66,31.24,6.23,13.72,19.31,29.75,37.17,37.43,60.22-15.73,14.71-34.17,25.23-53.44,34.48l-13.18.37c-2.2-26.16-27.57-39.42-34.94-62.72C337,790.72,346.25,776.43,360.29,766.19Z"/></svg>